<svg xmlns="http://www.w3.org/2000/svg" viewBox="0 0 512 512">
  <defs>
    <linearGradient id="a" x1="0%" y1="0%" x2="100%" y2="100%">
      <stop offset="0%" stop-color="#25D366"/>
      <stop offset="100%" stop-color="#128C7E"/>
    </linearGradient>
  </defs>
  <rect width="512" height="512" rx="84" fill="url(#a)"/>
  <path fill="#FFFFFF" d="M363.8 150.2c-22-22-51.9-34.2-83.2-34.2-31.1 0-60.7 12.5-82.7 34.7-22 22.1-34.2 51.7-34.2 82.9 0 18.3 4.2 36.1 11.5 52.2l-15.7 58.6 59.5-15.8c15.4 8.6 32.5 12.8 49.8 12.8 31.1 0 60.7-12.5 82.7-34.7 22-22.1 34.2-51.7 34.2-82.9 0-31.3-12.2-60.9-34.2-82.9zm-101.4 127.8c-12.2 0-23.1-2.8-33.4-8.3l-3.5-1.9-21 5.6 5.7-20.7-1.2-2.4c-5-9.6-8.2-20.3-8.2-31.3 0-19.6 7.5-37.1 21.2-50.7 13.8-13.6 32.1-21.1 51.7-21.1 19.6 0 38 7.5 51.7 21.1 13.8 13.6 21.2 31.1 21.2 50.7 0 19.6-7.5 37.1-21.2 50.7-13.7 13.6-32.1 21.1-51.7 21.1z"/>
  <path fill="#FFFFFF" d="M315.2 287.7c-27.4 27.4-67.4 35.9-102.8 22l-29.3 7.9 7.9-29.6-1.4-2.6c-11.2-21.4-13.5-46.5-6.3-69.8 7.1-21.5 21.7-40.2 42.1-54.2 20.4-14 45.1-21.4 70.8-21.4 25.7 0 50.4 7.4 70.8 21.4 20.4 14 35 32.7 42.1 54.2 7.1 23.3 4.8 48.4-6.3 69.8zm-59.1-108c-9.4 0-18.5 3.5-25.4 10.1-6.9 6.6-11 15.6-11 25.1 0 9.4 3.5 18.5 10.1 25.4 6.6 6.9 15.6 11 25.1 11 9.4 0 18.5-3.5 25.4-10.1 6.9-6.6 11-15.6 11-25.1 0-9.4-3.5-18.5-10.1-25.4-6.6-6.9-15.6-11-25.1-11z"/>
  <path fill="#25D366" d="M316.3 277.6c-15 15-36.7 19.5-56.8 14c-9.7-3.4-18.8-9.6-27.1-18-8.3-8.4-14.4-17.7-18-27.6-5.5-20.1-1.1-42-14.9-57.3-13.8-15.3-35.3-20.3-55.4-14.7-20.1 5.5-37.5 21.4-44.4 41.5-6.9 20.1-2.8 42.5 11.1 57.7 13.9 15.2 34.5 24.1 56.1 26.2 1.6.2 3.3 0 4.8-.8 1.4-.7 2.5-1.9 3.1-3.4l7.3-18.2c.6-1.6.4-3.4-.6-4.8-1.5-2.1-2.7-4.3-3.7-6.6-.4-1-1.6-2-2.7-1.9-11.6.8-23.4-.9-34.5-4.9-2.5-.9-5.3-.6-7.6.6-2.3 1.2-3.8 3.5-4.2 6.1-.9 4.9-.2 9.8 2.1 14.2 4.1 8.2 9.8 15.8 16.5 22.3 6.7 6.5 14.3 11.9 22.7 15.8 3.3 1.5 6.9.7 9.3-1.7l15.9-15.8c1.8-1.8 4.3-2.2 6.6-1 10.2 4.7 20 10.5 29 17.6 1.3 1 3.3 1.1 4.7.1l16.6-12.6c1.4-1.1 2.1-2.8 1.9-4.5-.8-5.3-2.7-10.4-5.3-15.2-1.8-3.3-3.8-6.4-6.1-9.3-1-1.3-2.4-2.1-4.1-2.3-1.8-.2-3.5.2-4.8 1.4l-12.6 11.1c-1.8 1.6-4.3 1.7-6.2.3-15.1-10.9-31-19.7-47.4-26.1-2.1-.8-4.5-.3-6.1 1.2-1.7 1.5-2.5 3.8-2.2 6.1 1.1 8.3 4.1 16.4 8.9 23.7 5.4 8 12.3 15.1 20.5 20.5 8.2 5.5 17.4 9.5 27.3 11.7 1.8.4 3.7.5 5.6.2 1.8-.3 3.5-1.1 4.9-2.3l19.2-17.6c1.8-1.7 2.7-4.2 2.4-6.7-.5-4.6-1.8-9.1-4-13.4-1.6-3.2-3.9-6.1-6.6-8.5z"/>
</svg>
